<svg xmlns="http://www.w3.org/2000/svg" width="4507" height="1080" viewBox="0 0 4507 1080" fill="none"><g clip-path="url(#clip0_1528_3025)"><path fill-rule="evenodd" clip-rule="evenodd" d="M390.647 159.999C389.237 157.716 386.744 156.326 384.061 156.326H383.572H195.902H195.901C195.718 156.326 195.536 156.333 195.355 156.345C194.452 156.409 193.58 156.63 192.774 156.986C191.409 157.589 190.225 158.583 189.392 159.875C189.223 160.138 189.071 160.409 188.936 160.687L0.817808 536.829C-0.273366 539.01 -0.272563 541.579 0.819981 543.76L188.979 919.398C190.291 922.018 192.971 923.673 195.902 923.673H384.061C386.745 923.673 389.238 922.282 390.649 919.998C392.059 917.714 392.186 914.862 390.984 912.462L204.561 540.289L285.072 379.308L528.886 916.592C528.988 917.781 529.365 918.949 530.012 919.998C531.423 922.282 533.916 923.673 536.6 923.673H537.088H724.759C727.324 923.673 729.696 922.406 731.128 920.334C731.333 920.038 731.518 919.725 731.682 919.398L919.841 543.76C920.934 541.579 920.934 539.01 919.843 536.829L731.685 160.606C730.373 157.983 727.692 156.326 724.759 156.326H536.6C533.917 156.326 531.424 157.716 530.014 159.999C528.603 162.282 528.475 165.133 529.675 167.533L716.1 540.289L635.667 700.865L391.776 163.41C391.674 162.219 391.296 161.049 390.647 159.999ZM371.53 171.812H207.918L285.751 343.329L371.53 171.812ZM293.988 361.48L383.465 182.571L626.745 718.678L537.201 897.441L293.988 361.48ZM549.139 908.187L712.742 908.187L634.978 736.82L549.139 908.187ZM643.9 719.007L725.104 897.952L904.259 540.289L719.974 171.812H549.131L731.685 536.829C732.776 539.01 732.775 541.579 731.682 543.76L643.9 719.007ZM276.835 361.157L195.562 182.06L16.402 540.289L200.684 908.187H371.522L188.979 543.76C187.886 541.579 187.885 539.01 188.977 536.829L276.835 361.157Z" fill="black"></path><path d="M4323.36 395.02C4350.59 395.02 4374.85 397.989 4396.14 403.928C4417.54 409.868 4435.59 418.441 4450.27 429.647C4464.95 440.741 4476.1 454.244 4483.72 470.157C4491.45 486.07 4495.32 504 4495.32 523.947H4395.97C4395.97 515.318 4394.46 507.642 4391.43 500.918C4388.41 494.083 4383.93 488.255 4377.99 483.437C4372.05 478.618 4364.65 474.976 4355.8 472.511C4347.06 469.933 4336.92 468.644 4325.37 468.644C4315.29 468.644 4306.04 469.597 4297.64 471.502C4289.35 473.407 4282.17 476.153 4276.12 479.739C4270.18 483.213 4265.53 487.415 4262.17 492.346C4258.92 497.164 4257.3 502.543 4257.3 508.483C4257.3 513.413 4258.25 517.672 4260.15 521.258C4262.17 524.844 4264.92 528.037 4268.39 530.839C4271.86 533.528 4276.01 535.882 4280.83 537.899C4285.65 539.916 4290.91 541.653 4296.63 543.11C4302.34 544.567 4308.4 545.911 4314.78 547.144C4321.28 548.265 4327.89 549.441 4334.62 550.674L4359.5 554.876C4369.47 556.557 4380 558.518 4391.1 560.76C4402.3 562.889 4413.34 565.69 4424.21 569.164C4435.08 572.638 4445.5 577.009 4455.48 582.276C4465.45 587.43 4474.19 593.986 4481.7 601.942C4489.32 609.787 4495.37 619.144 4499.85 630.014C4504.45 640.884 4506.75 653.715 4506.75 668.507C4506.75 687.11 4502.88 703.695 4495.15 718.263C4487.42 732.831 4476.1 745.158 4461.19 755.244C4446.4 765.217 4428.13 772.781 4406.39 777.936C4384.77 783.203 4359.89 785.837 4331.76 785.837C4302.18 785.837 4276.12 782.923 4253.6 777.096C4231.18 771.381 4212.36 762.92 4197.12 751.714C4181.99 740.395 4170.56 726.612 4162.83 710.363C4155.09 694.002 4151.23 675.175 4151.23 653.883H4250.57C4250.57 663.185 4252.2 671.421 4255.45 678.593C4258.7 685.765 4263.68 691.816 4270.41 696.747C4277.13 701.566 4285.48 705.264 4295.45 707.841C4305.54 710.307 4317.36 711.539 4330.92 711.539C4342.91 711.539 4353.61 710.643 4363.03 708.85C4372.44 706.945 4380.45 704.199 4387.06 700.613C4393.68 697.027 4398.72 692.657 4402.19 687.502C4405.67 682.347 4407.4 676.52 4407.4 670.02C4407.4 664.753 4406.39 660.159 4404.38 656.237C4402.47 652.202 4399.78 648.729 4396.31 645.815C4392.83 642.901 4388.58 640.38 4383.53 638.251C4378.49 636.009 4372.89 634.048 4366.72 632.367C4360.56 630.686 4353.84 629.174 4346.55 627.829C4339.38 626.484 4331.82 625.083 4323.86 623.627L4299.15 619.256C4290.07 617.687 4280.27 615.894 4269.73 613.877C4259.2 611.748 4248.72 609.002 4238.3 605.641C4227.88 602.167 4217.85 597.908 4208.21 592.865C4198.57 587.823 4190 581.547 4182.49 574.039C4175.1 566.419 4169.16 557.454 4164.68 547.144C4160.31 536.722 4158.12 524.451 4158.12 510.332C4158.12 492.514 4161.87 476.489 4169.38 462.257C4177 448.025 4187.87 435.922 4201.99 425.949C4216.22 415.975 4233.54 408.355 4253.93 403.088C4274.44 397.709 4297.58 395.02 4323.36 395.02Z" fill="black"></path><path d="M3946.46 395.02C3973.69 395.02 3997.95 397.989 4019.24 403.928C4040.65 409.868 4058.69 418.441 4073.37 429.647C4088.05 440.741 4099.2 454.244 4106.82 470.157C4114.55 486.07 4118.42 504 4118.42 523.947H4019.08C4019.08 515.318 4017.56 507.642 4014.54 500.918C4011.51 494.083 4007.03 488.255 4001.09 483.437C3995.15 478.618 3987.75 474.976 3978.9 472.511C3970.16 469.933 3960.02 468.644 3948.48 468.644C3938.39 468.644 3929.15 469.597 3920.74 471.502C3912.45 473.407 3905.28 476.153 3899.23 479.739C3893.29 483.213 3888.64 487.415 3885.27 492.346C3882.02 497.164 3880.4 502.543 3880.4 508.483C3880.4 513.413 3881.35 517.672 3883.26 521.258C3885.27 524.844 3888.02 528.037 3891.49 530.839C3894.97 533.528 3899.11 535.882 3903.93 537.899C3908.75 539.916 3914.02 541.653 3919.73 543.11C3925.45 544.567 3931.5 545.911 3937.89 547.144C3944.39 548.265 3951 549.441 3957.72 550.674L3982.6 554.876C3992.57 556.557 4003.11 558.518 4014.2 560.76C4025.41 562.889 4036.45 565.69 4047.32 569.164C4058.19 572.638 4068.61 577.009 4078.58 582.276C4088.55 587.43 4097.3 593.986 4104.8 601.942C4112.42 609.787 4118.48 619.144 4122.96 630.014C4127.55 640.884 4129.85 653.715 4129.85 668.507C4129.85 687.11 4125.98 703.695 4118.25 718.263C4110.52 732.831 4099.2 745.158 4084.3 755.244C4069.5 765.217 4051.24 772.781 4029.5 777.936C4007.87 783.203 3982.99 785.837 3954.86 785.837C3925.28 785.837 3899.23 782.923 3876.7 777.096C3854.29 771.381 3835.46 762.92 3820.22 751.714C3805.09 740.395 3793.66 726.612 3785.93 710.363C3778.2 694.002 3774.33 675.175 3774.33 653.883H3873.68C3873.68 663.185 3875.3 671.421 3878.55 678.593C3881.8 685.765 3886.79 691.816 3893.51 696.747C3900.23 701.566 3908.58 705.264 3918.56 707.841C3928.64 710.307 3940.46 711.539 3954.02 711.539C3966.01 711.539 3976.72 710.643 3986.13 708.85C3995.54 706.945 4003.56 704.199 4010.17 700.613C4016.78 697.027 4021.82 692.657 4025.3 687.502C4028.77 682.347 4030.51 676.52 4030.51 670.02C4030.51 664.753 4029.5 660.159 4027.48 656.237C4025.58 652.202 4022.89 648.729 4019.41 645.815C4015.94 642.901 4011.68 640.38 4006.64 638.251C4001.59 636.009 3995.99 634.048 3989.83 632.367C3983.66 630.686 3976.94 629.174 3969.66 627.829C3962.48 626.484 3954.92 625.083 3946.96 623.627L3922.25 619.256C3913.18 617.687 3903.37 615.894 3892.84 613.877C3882.3 611.748 3871.83 609.002 3861.4 605.641C3850.98 602.167 3840.95 597.908 3831.32 592.865C3821.68 587.823 3813.11 581.547 3805.6 574.039C3798.2 566.419 3792.26 557.454 3787.78 547.144C3783.41 536.722 3781.22 524.451 3781.22 510.332C3781.22 492.514 3784.98 476.489 3792.49 462.257C3800.11 448.025 3810.98 435.922 3825.1 425.949C3839.33 415.975 3856.64 408.355 3877.04 403.088C3897.54 397.709 3920.69 395.02 3946.46 395.02Z" fill="black"></path><path d="M3479.39 597.068C3479.39 613.877 3481.51 629.006 3485.77 642.453C3490.14 655.788 3496.36 667.107 3504.43 676.408C3512.5 685.709 3522.31 692.881 3533.85 697.924C3545.5 702.855 3558.67 705.32 3573.35 705.32C3583.1 705.32 3592.06 704.199 3600.25 701.958C3608.54 699.605 3615.99 696.131 3622.6 691.536C3629.33 686.83 3635.26 681.058 3640.42 674.223C3645.69 667.275 3650.11 659.262 3653.7 650.185H3748.34C3743.29 671.253 3735.39 690.192 3724.63 707.001C3713.88 723.81 3700.82 738.042 3685.47 749.697C3670.23 761.351 3652.86 770.26 3633.36 776.423C3613.97 782.699 3593.02 785.837 3570.49 785.837C3542.48 785.837 3516.98 781.13 3494.01 771.717C3471.04 762.304 3451.31 749.024 3434.84 731.879C3418.48 714.621 3405.76 694.002 3396.68 670.02C3387.72 645.927 3383.24 619.256 3383.24 590.008C3383.24 560.984 3387.66 534.481 3396.52 510.5C3405.48 486.518 3418.09 466.011 3434.34 448.978C3450.59 431.832 3470.08 418.553 3492.83 409.139C3515.58 399.726 3540.8 395.02 3568.48 395.02C3595.82 395.02 3620.64 399.67 3642.94 408.971C3665.35 418.16 3684.46 431.272 3700.26 448.305C3716.17 465.227 3728.44 485.678 3737.07 509.659C3745.7 533.528 3750.02 560.143 3750.02 589.504C3750.02 593.986 3749.9 598.525 3749.68 603.119C3749.46 607.602 3749.12 612.196 3748.67 616.903H3445.6V554.708H3695.55L3654.71 615.894C3655.16 611.524 3655.44 607.209 3655.55 602.951C3655.77 598.581 3655.88 594.322 3655.88 590.176C3655.88 571.125 3653.98 554.428 3650.17 540.084C3646.47 525.628 3640.98 513.525 3633.7 503.776C3626.41 494.027 3617.33 486.686 3606.46 481.756C3595.71 476.713 3583.21 474.192 3568.98 474.192C3554.86 474.192 3542.25 476.657 3531.16 481.588C3520.06 486.518 3510.65 493.69 3502.92 503.104C3495.3 512.405 3489.47 523.835 3485.44 537.395C3481.4 550.954 3479.39 566.307 3479.39 583.452V597.068Z" fill="black"></path><path d="M3220.47 606.481V775.751H3119.79V405.105H3220.47V535.714L3220.14 536.218C3223.28 516.047 3228.1 497.893 3234.59 481.756C3241.09 465.507 3249.44 451.723 3259.64 440.405C3269.84 429.087 3281.94 420.402 3295.95 414.351C3309.96 408.187 3326.09 405.105 3344.36 405.105H3366.38V499.91H3327.55C3306.93 499.91 3289.73 502.039 3275.95 506.298C3262.27 510.556 3251.29 517.056 3243 525.797C3234.82 534.537 3228.99 545.632 3225.52 559.079C3222.16 572.414 3220.47 588.215 3220.47 606.481Z" fill="black"></path><path d="M2669.06 775.751V295.004H2896.66C2923.78 295.004 2948.6 298.926 2971.12 306.77C2993.65 314.615 3012.98 325.597 3029.12 339.717C3045.37 353.837 3057.97 370.702 3066.94 390.313C3075.9 409.924 3080.39 431.608 3080.39 455.365C3080.39 479.01 3075.85 500.694 3066.77 520.417C3057.8 540.14 3045.2 557.118 3028.95 571.349C3012.81 585.581 2993.48 596.619 2970.96 604.464C2948.43 612.308 2923.67 616.23 2896.66 616.23H2763.19L2775.3 602.447V775.751H2669.06ZM2769.58 382.749L2775.3 375.521V539.916L2766.39 528.486H2890.94C2903.83 528.486 2915.37 526.805 2925.57 523.443C2935.88 520.081 2944.62 515.262 2951.79 508.987C2958.97 502.711 2964.46 495.091 2968.27 486.126C2972.19 477.049 2974.15 466.795 2974.15 455.365C2974.15 444.047 2972.25 433.905 2968.43 424.94C2964.62 415.975 2959.19 408.355 2952.13 402.079C2945.07 395.804 2936.44 391.041 2926.24 387.791C2916.05 384.43 2904.56 382.749 2891.78 382.749H2769.58Z" fill="black"></path><path d="M2630.49 772.893C2614.69 777.263 2599.9 780.457 2586.12 782.474C2572.45 784.603 2559.56 785.668 2547.46 785.668C2527.06 785.668 2509.13 782.642 2493.67 776.591C2478.2 770.651 2465.26 761.742 2454.84 749.864C2444.41 737.873 2436.51 722.969 2431.13 705.151C2425.87 687.333 2423.23 666.658 2423.23 643.125V319.713H2523.92V643.293C2523.92 653.939 2524.88 663.128 2526.78 670.86C2528.8 678.592 2531.77 684.98 2535.69 690.023C2539.72 694.953 2544.82 698.651 2550.99 701.117C2557.15 703.47 2564.55 704.647 2573.17 704.647C2580.12 704.647 2588.19 703.918 2597.38 702.462C2606.68 700.893 2617.72 698.483 2630.49 695.234V772.893ZM2630.49 485.117H2376.84V405.104H2630.49V485.117Z" fill="black"></path><path d="M2351.98 405.105L2231.96 589.336V586.142L2363.41 775.751H2246.42L2154.47 635.562H2156.49L2067.06 775.751H1956.46L2082.02 587.319V590.513L1957.8 405.105H2074.79L2160.02 542.438H2157.83L2241.21 405.105H2351.98Z" fill="black"></path><path d="M1704.56 597.068C1704.56 613.877 1706.69 629.006 1710.94 642.453C1715.31 655.788 1721.53 667.107 1729.6 676.408C1737.67 685.709 1747.48 692.881 1759.02 697.924C1770.67 702.855 1783.84 705.32 1798.52 705.32C1808.27 705.32 1817.24 704.199 1825.42 701.958C1833.71 699.605 1841.16 696.131 1847.77 691.536C1854.5 686.83 1860.44 681.058 1865.59 674.223C1870.86 667.275 1875.28 659.262 1878.87 650.185H1973.51C1968.46 671.253 1960.56 690.192 1949.8 707.001C1939.05 723.81 1925.99 738.042 1910.64 749.697C1895.4 761.351 1878.03 770.26 1858.53 776.423C1839.14 782.699 1818.19 785.837 1795.66 785.837C1767.65 785.837 1742.15 781.13 1719.18 771.717C1696.21 762.304 1676.49 749.024 1660.01 731.879C1643.65 714.621 1630.93 694.002 1621.85 670.02C1612.89 645.927 1608.41 619.256 1608.41 590.008C1608.41 560.984 1612.83 534.481 1621.69 510.5C1630.65 486.518 1643.26 466.011 1659.51 448.978C1675.76 431.832 1695.26 418.553 1718 409.139C1740.75 399.726 1765.97 395.02 1793.65 395.02C1820.99 395.02 1845.81 399.67 1868.11 408.971C1890.52 418.16 1909.63 431.272 1925.43 448.305C1941.34 465.227 1953.62 485.678 1962.24 509.659C1970.87 533.528 1975.19 560.143 1975.19 589.504C1975.19 593.986 1975.07 598.525 1974.85 603.119C1974.63 607.602 1974.29 612.196 1973.84 616.903H1670.77V554.708H1920.72L1879.88 615.894C1880.33 611.524 1880.61 607.209 1880.72 602.951C1880.94 598.581 1881.05 594.322 1881.05 590.176C1881.05 571.125 1879.15 554.428 1875.34 540.084C1871.64 525.628 1866.15 513.525 1858.87 503.776C1851.58 494.027 1842.51 486.686 1831.64 481.756C1820.88 476.713 1808.38 474.192 1794.15 474.192C1780.03 474.192 1767.42 476.657 1756.33 481.588C1745.24 486.518 1735.82 493.69 1728.09 503.104C1720.47 512.405 1714.64 523.835 1710.61 537.395C1706.57 550.954 1704.56 566.307 1704.56 583.452V597.068Z" fill="black"></path><path d="M1571.51 295.004V775.751H1420.89L1232.29 388.296L1233.13 388.128V775.751H1131.27V295.004H1291.97L1470.48 659.598L1469.64 659.767V295.004H1571.51Z" fill="black"></path></g><defs><clipPath id="clip0_1528_3025"><rect width="4506.58" height="1080" fill="white"></rect></clipPath></defs></svg>